<svg width="250" height="250" viewBox="0 0 250 250" fill="none" xmlns="http://www.w3.org/2000/svg">
<rect width="250" height="250" rx="40" fill="#277AFF"/>
<path d="M129.067 53.9333C131.283 51.7168 134.288 50.4701 137.42 50.4673C140.551 50.4645 143.554 51.706 145.766 53.9185L195.821 103.973C198.033 106.186 199.275 109.188 199.272 112.32C199.269 115.451 198.022 118.456 195.806 120.673L128.949 187.53C126.732 189.746 123.728 190.993 120.596 190.996C117.464 190.998 114.462 189.757 112.249 187.544L108.078 183.373L116.435 175.016L120.606 179.187L187.464 112.33L143.345 68.2113L143.294 126.117C143.291 128.465 142.356 130.718 140.694 132.38C139.032 134.042 136.779 134.977 134.431 134.98L76.4501 135.031L78.8945 137.475L70.5373 145.832L62.1949 137.49C59.9824 135.277 58.7409 132.275 58.7437 129.143C58.7465 126.011 59.9932 123.007 62.2096 120.79L129.067 53.9333ZM108.108 149.974C109.174 148.91 110.605 148.293 112.11 148.248C113.614 148.204 115.077 148.735 116.201 149.734C117.325 150.733 118.024 152.124 118.156 153.623C118.287 155.122 117.842 156.615 116.91 157.798L116.45 158.316L95.5572 179.209C94.491 180.273 93.0595 180.89 91.5552 180.935C90.0509 180.98 88.5874 180.448 87.4637 179.449C86.3399 178.45 85.6408 177.059 85.5091 175.561C85.3774 174.062 85.8231 172.568 86.7551 171.385L87.2148 170.867L108.108 149.974ZM91.4154 141.639C92.5237 140.531 94.026 139.907 95.5918 139.906C97.1577 139.905 98.6589 140.525 99.7652 141.632C100.871 142.738 101.492 144.239 101.491 145.805C101.489 147.371 100.866 148.873 99.7578 149.981L87.2221 162.517C86.1139 163.625 84.6116 164.249 83.0457 164.25C81.4798 164.251 79.9786 163.631 78.8724 162.524C77.7661 161.418 77.1454 159.917 77.1468 158.351C77.1481 156.785 77.7715 155.283 78.8797 154.175L91.4154 141.639Z" fill="#EFF6FF"/>
</svg>
