<svg width="1590" height="250" viewBox="0 0 1590 250" fill="none" xmlns="http://www.w3.org/2000/svg">
<rect width="250" height="250" rx="40" fill="#277AFF"/>
<path d="M129.067 53.9333C131.283 51.7168 134.288 50.4701 137.42 50.4673C140.551 50.4645 143.554 51.706 145.766 53.9185L195.821 103.973C198.033 106.186 199.275 109.188 199.272 112.32C199.269 115.451 198.022 118.456 195.806 120.673L128.949 187.53C126.732 189.746 123.728 190.993 120.596 190.996C117.464 190.998 114.462 189.757 112.249 187.544L108.078 183.373L116.435 175.016L120.606 179.187L187.464 112.33L143.345 68.2113L143.294 126.117C143.291 128.465 142.356 130.718 140.694 132.38C139.032 134.042 136.779 134.977 134.431 134.98L76.4501 135.031L78.8945 137.475L70.5373 145.832L62.1949 137.49C59.9824 135.277 58.7409 132.275 58.7437 129.143C58.7465 126.011 59.9932 123.007 62.2096 120.79L129.067 53.9333ZM108.108 149.974C109.174 148.91 110.605 148.293 112.11 148.248C113.614 148.204 115.077 148.735 116.201 149.734C117.325 150.733 118.024 152.124 118.156 153.623C118.287 155.122 117.842 156.615 116.91 157.798L116.45 158.316L95.5572 179.209C94.491 180.273 93.0595 180.89 91.5552 180.935C90.0509 180.98 88.5874 180.448 87.4637 179.449C86.3399 178.45 85.6408 177.059 85.5091 175.561C85.3774 174.062 85.8231 172.568 86.7551 171.385L87.2148 170.867L108.108 149.974ZM91.4154 141.639C92.5237 140.531 94.026 139.907 95.5918 139.906C97.1577 139.905 98.6589 140.525 99.7652 141.632C100.871 142.738 101.492 144.239 101.491 145.805C101.489 147.371 100.866 148.873 99.7578 149.981L87.2221 162.517C86.1139 163.625 84.6116 164.249 83.0457 164.25C81.4798 164.251 79.9786 163.631 78.8724 162.524C77.7661 161.418 77.1454 159.917 77.1468 158.351C77.1481 156.785 77.7715 155.283 78.8797 154.175L91.4154 141.639Z" fill="#EFF6FF"/>
<path d="M798.146 34.516C798.732 33.9293 799.528 33.5992 800.357 33.5985C801.186 33.5978 801.98 33.9264 802.566 34.5121L815.816 47.7621C816.402 48.3478 816.73 49.1425 816.73 49.9716C816.729 50.8006 816.399 51.5959 815.812 52.1827L798.114 69.8805C797.528 70.4672 796.732 70.7973 795.903 70.798C795.074 70.7987 794.28 70.4701 793.694 69.8844L792.59 68.7803L794.802 66.568L795.906 67.6722L813.604 49.9743L801.925 38.2956L801.912 53.6239C801.911 54.2455 801.664 54.8419 801.224 55.2818C800.784 55.7218 800.187 55.9693 799.566 55.9699L784.217 55.9835L784.864 56.6305L782.652 58.8428L780.444 56.6344C779.858 56.0487 779.53 55.254 779.53 54.4249C779.531 53.5959 779.861 52.8006 780.448 52.2139L798.146 34.516ZM792.597 59.9391C792.88 59.6575 793.259 59.4941 793.657 59.4823C794.055 59.4705 794.442 59.6112 794.74 59.8756C795.037 60.14 795.222 60.5082 795.257 60.905C795.292 61.3017 795.174 61.6971 794.928 62.0103L794.806 62.1475L789.275 67.678C788.993 67.9596 788.614 68.1231 788.216 68.1349C787.818 68.1467 787.43 68.006 787.133 67.7416C786.835 67.4771 786.65 67.1089 786.615 66.7122C786.581 66.3154 786.699 65.92 786.945 65.6068L787.067 65.4697L792.597 59.9391ZM788.179 57.7327C788.472 57.4394 788.87 57.2744 789.284 57.274C789.699 57.2736 790.096 57.4379 790.389 57.7308C790.682 58.0236 790.846 58.421 790.846 58.8355C790.846 59.25 790.681 59.6477 790.387 59.9411L787.069 63.2594C786.775 63.5528 786.378 63.7178 785.963 63.7182C785.549 63.7185 785.151 63.5542 784.859 63.2614C784.566 62.9685 784.401 62.5711 784.402 62.1566C784.402 61.7421 784.567 61.3444 784.861 61.0511L788.179 57.7327Z" fill="#277AFF"/>
<path d="M310 215.304V33.4858H423.991V57.1009H337.433V112.499H418.043V136.025H337.433V191.689H425.057V215.304H310Z" fill="#277AFF"/>
<path d="M446.004 215.304V78.9403H471.483V101.135H473.17C476.011 93.6184 480.657 87.759 487.108 83.5568C493.56 79.2955 501.283 77.1648 510.28 77.1648C519.394 77.1648 527.029 79.2955 533.184 83.5568C539.399 87.8182 543.986 93.6776 546.945 101.135H548.366C551.621 93.8551 556.8 88.0549 563.902 83.7344C571.004 79.3546 579.468 77.1648 589.292 77.1648C601.662 77.1648 611.753 81.0414 619.566 88.7948C627.438 96.5481 631.373 108.237 631.373 123.862V215.304H604.829V126.348C604.829 117.115 602.313 110.427 597.283 106.284C592.252 102.141 586.244 100.07 579.26 100.07C570.619 100.07 563.902 102.733 559.108 108.06C554.314 113.327 551.917 120.104 551.917 128.39V215.304H525.461V124.661C525.461 117.263 523.153 111.315 518.536 106.817C513.92 102.319 507.912 100.07 500.514 100.07C495.483 100.07 490.837 101.401 486.576 104.065C482.374 106.669 478.97 110.309 476.366 114.984C473.821 119.66 472.549 125.076 472.549 131.231V215.304H446.004Z" fill="#277AFF"/>
<path d="M694.135 218.322C685.494 218.322 677.682 216.724 670.698 213.528C663.714 210.273 658.18 205.568 654.096 199.413C650.072 193.257 648.059 185.711 648.059 176.774C648.059 169.08 649.539 162.747 652.498 157.776C655.458 152.804 659.453 148.868 664.483 145.968C669.514 143.068 675.137 140.878 681.351 139.398C687.566 137.919 693.899 136.794 700.35 136.025C708.517 135.078 715.146 134.308 720.236 133.717C725.326 133.066 729.025 132.03 731.333 130.609C733.642 129.189 734.796 126.881 734.796 123.685V123.063C734.796 115.31 732.606 109.303 728.226 105.041C723.906 100.78 717.454 98.6491 708.873 98.6491C699.936 98.6491 692.892 100.632 687.743 104.597C682.653 108.504 679.132 112.854 677.179 117.648L652.232 111.966C655.191 103.68 659.512 96.992 665.194 91.902C670.935 86.7528 677.534 83.0241 684.991 80.7159C692.449 78.3485 700.291 77.1648 708.517 77.1648C713.962 77.1648 719.733 77.8158 725.829 79.1179C731.984 80.3608 737.726 82.669 743.052 86.0426C748.438 89.4162 752.847 94.2398 756.28 100.513C759.713 106.728 761.429 114.807 761.429 124.75V215.304H735.506V196.661H734.441C732.724 200.093 730.15 203.467 726.717 206.781C723.284 210.096 718.875 212.848 713.489 215.038C708.103 217.228 701.652 218.322 694.135 218.322ZM699.906 197.016C707.245 197.016 713.519 195.566 718.727 192.665C723.994 189.765 727.989 185.978 730.712 181.302C733.494 176.567 734.885 171.507 734.885 166.121V148.543C733.938 149.49 732.103 150.377 729.38 151.206C726.717 151.975 723.669 152.656 720.236 153.248C716.803 153.781 713.459 154.284 710.204 154.757C706.949 155.171 704.226 155.527 702.037 155.822C696.887 156.473 692.182 157.568 687.921 159.107C683.719 160.646 680.345 162.866 677.8 165.766C675.314 168.607 674.071 172.394 674.071 177.129C674.071 183.699 676.498 188.67 681.351 192.044C686.204 195.358 692.389 197.016 699.906 197.016Z" fill="#277AFF"/>
<path d="M784.285 215.304V78.9403H810.83V215.304H784.285Z" fill="#277AFF"/>
<path d="M860.586 33.4858V215.304H834.041V33.4858H860.586Z" fill="#277AFF"/>
<path d="M985.093 81.2486C984.146 72.8442 980.24 66.3338 973.374 61.7173C966.509 57.0417 957.868 54.7038 947.451 54.7038C939.994 54.7038 933.543 55.8876 928.097 58.255C922.652 60.5632 918.421 63.7592 915.402 67.843C912.443 71.8677 910.963 76.4546 910.963 81.6037C910.963 85.9242 911.969 89.6529 913.982 92.7898C916.053 95.9266 918.746 98.5604 922.061 100.691C925.434 102.763 929.044 104.509 932.892 105.929C936.739 107.29 940.438 108.415 943.989 109.303L961.745 113.919C967.545 115.339 973.493 117.263 979.589 119.69C985.685 122.116 991.337 125.312 996.546 129.278C1001.75 133.243 1005.96 138.156 1009.15 144.015C1012.41 149.874 1014.03 156.888 1014.03 165.055C1014.03 175.354 1011.37 184.498 1006.04 192.488C1000.78 200.478 993.113 206.781 983.051 211.398C973.049 216.014 960.946 218.322 946.741 218.322C933.128 218.322 921.35 216.162 911.407 211.842C901.464 207.521 893.681 201.395 888.058 193.465C882.436 185.474 879.329 176.005 878.737 165.055H906.258C906.791 171.625 908.921 177.1 912.65 181.479C916.438 185.8 921.262 189.026 927.121 191.156C933.039 193.228 939.52 194.264 946.563 194.264C954.317 194.264 961.212 193.05 967.249 190.624C973.345 188.138 978.139 184.705 981.631 180.325C985.123 175.886 986.869 170.708 986.869 164.789C986.869 159.403 985.33 154.994 982.252 151.561C979.234 148.128 975.12 145.287 969.912 143.038C964.763 140.789 958.933 138.807 952.423 137.09L930.938 131.231C916.379 127.265 904.838 121.436 896.315 113.741C887.851 106.047 883.62 95.8674 883.62 83.2017C883.62 72.7259 886.46 63.5817 892.142 55.7692C897.824 47.9567 905.518 41.8902 915.225 37.5696C924.931 33.1899 935.88 31 948.073 31C960.383 31 971.244 33.1603 980.654 37.4808C990.124 41.8014 997.581 47.7495 1003.03 55.3253C1008.47 62.8419 1011.31 71.483 1011.55 81.2486H985.093Z" fill="#277AFF"/>
<path d="M1090.96 218.056C1077.52 218.056 1065.95 215.186 1056.24 209.445C1046.6 203.644 1039.14 195.506 1033.87 185.031C1028.66 174.496 1026.06 162.155 1026.06 148.01C1026.06 134.042 1028.66 121.732 1033.87 111.078C1039.14 100.425 1046.48 92.1091 1055.89 86.1314C1065.36 80.1537 1076.43 77.1648 1089.09 77.1648C1096.79 77.1648 1104.24 78.4373 1111.46 80.9823C1118.69 83.5272 1125.17 87.5223 1130.91 92.9673C1136.65 98.4124 1141.18 105.485 1144.49 114.185C1147.8 122.826 1149.46 133.332 1149.46 145.702V155.112H1041.06V135.226H1123.45C1123.45 128.242 1122.03 122.057 1119.19 116.671C1116.35 111.226 1112.35 106.935 1107.2 103.798C1102.11 100.661 1096.14 99.093 1089.27 99.093C1081.81 99.093 1075.3 100.928 1069.74 104.597C1064.23 108.208 1059.97 112.942 1056.95 118.802C1054 124.602 1052.52 130.905 1052.52 137.712V153.248C1052.52 162.362 1054.11 170.116 1057.31 176.508C1060.57 182.9 1065.09 187.783 1070.89 191.156C1076.69 194.471 1083.47 196.128 1091.22 196.128C1096.25 196.128 1100.84 195.418 1104.98 193.997C1109.13 192.518 1112.71 190.328 1115.73 187.428C1118.74 184.527 1121.05 180.947 1122.65 176.685L1147.78 181.213C1145.76 188.611 1142.15 195.092 1136.94 200.656C1131.8 206.16 1125.31 210.451 1117.5 213.528C1109.75 216.547 1100.9 218.056 1090.96 218.056Z" fill="#277AFF"/>
<path d="M1192.96 134.338V215.304H1166.41V78.9403H1191.89V101.135H1193.58C1196.72 93.9143 1201.63 88.1141 1208.32 83.7344C1215.06 79.3546 1223.56 77.1648 1233.8 77.1648C1243.09 77.1648 1251.23 79.1179 1258.21 83.0242C1265.2 86.8712 1270.61 92.6122 1274.46 100.247C1278.3 107.882 1280.23 117.322 1280.23 128.567V215.304H1253.68V131.763C1253.68 121.88 1251.11 114.156 1245.96 108.592C1240.81 102.97 1233.74 100.158 1224.74 100.158C1218.59 100.158 1213.11 101.49 1208.32 104.153C1203.58 106.817 1199.82 110.723 1197.04 115.872C1194.32 120.962 1192.96 127.117 1192.96 134.338Z" fill="#277AFF"/>
<path d="M1354.38 217.967C1343.37 217.967 1333.54 215.156 1324.9 209.533C1316.32 203.852 1309.57 195.773 1304.66 185.297C1299.81 174.762 1297.38 162.126 1297.38 147.388C1297.38 132.651 1299.84 120.045 1304.75 109.569C1309.72 99.093 1316.53 91.0734 1325.17 85.51C1333.81 79.9465 1343.6 77.1648 1354.55 77.1648C1363.02 77.1648 1369.82 78.5852 1374.97 81.4261C1380.18 84.2079 1384.21 87.4631 1387.05 91.1918C1389.95 94.9205 1392.2 98.2053 1393.79 101.046H1395.39V33.4858H1421.94V215.304H1396.01V194.086H1393.79C1392.2 196.986 1389.89 200.3 1386.87 204.029C1383.91 207.758 1379.83 211.013 1374.62 213.795C1369.41 216.576 1362.66 217.967 1354.38 217.967ZM1360.24 195.329C1367.87 195.329 1374.32 193.317 1379.59 189.292C1384.92 185.208 1388.94 179.556 1391.66 172.335C1394.44 165.115 1395.84 156.71 1395.84 147.122C1395.84 137.652 1394.47 129.366 1391.75 122.264C1389.03 115.162 1385.03 109.628 1379.77 105.663C1374.5 101.697 1367.99 99.7145 1360.24 99.7145C1352.25 99.7145 1345.59 101.786 1340.26 105.929C1334.93 110.072 1330.91 115.724 1328.19 122.886C1325.52 130.047 1324.19 138.126 1324.19 147.122C1324.19 156.237 1325.55 164.434 1328.28 171.714C1331 178.994 1335.02 184.764 1340.35 189.026C1345.73 193.228 1352.36 195.329 1360.24 195.329Z" fill="#277AFF"/>
<path d="M1468.54 33.4858L1512.04 104.597H1513.46L1556.96 33.4858H1588.75L1532.11 124.395L1589.1 215.304H1557.14L1513.46 145.169H1512.04L1468.36 215.304H1436.4L1494.38 124.395L1436.76 33.4858H1468.54Z" fill="#277AFF"/>
</svg>
